<?xml version="1.0" encoding="UTF-8" standalone="no"?>
<!-- Created with Inkscape (http://www.inkscape.org/) -->

<svg
   width="800"
   height="800"
   viewBox="0 0 211.66666 211.66667"
   version="1.1"
   id="svg1"
   xml:space="preserve"
   inkscape:version="1.3 (0e150ed6c4, 2023-07-21)"
   sodipodi:docname="pybraces.svg"
   inkscape:export-filename="pybraces.png"
   inkscape:export-xdpi="128"
   inkscape:export-ydpi="128"
   xmlns:inkscape="http://www.inkscape.org/namespaces/inkscape"
   xmlns:sodipodi="http://sodipodi.sourceforge.net/DTD/sodipodi-0.dtd"
   xmlns:xlink="http://www.w3.org/1999/xlink"
   xmlns="http://www.w3.org/2000/svg"
   xmlns:svg="http://www.w3.org/2000/svg"><sodipodi:namedview
     id="namedview1"
     pagecolor="#ffffff"
     bordercolor="#000000"
     borderopacity="0.25"
     inkscape:showpageshadow="2"
     inkscape:pageopacity="0.0"
     inkscape:pagecheckerboard="0"
     inkscape:deskcolor="#d1d1d1"
     inkscape:document-units="mm"
     inkscape:zoom="0.1767767"
     inkscape:cx="-427.09249"
     inkscape:cy="-480.83261"
     inkscape:window-width="1920"
     inkscape:window-height="1002"
     inkscape:window-x="1912"
     inkscape:window-y="-8"
     inkscape:window-maximized="1"
     inkscape:current-layer="layer1" /><defs
     id="defs1"><linearGradient
       id="linearGradient296"
       inkscape:collect="always"><stop
         style="stop-color:#c71429;stop-opacity:1;"
         offset="0.13225058"
         id="stop296" /><stop
         style="stop-color:#281b6b;stop-opacity:1;"
         offset="0.96287704"
         id="stop297" /></linearGradient><linearGradient
       id="linearGradient294"
       inkscape:collect="always"><stop
         style="stop-color:#ffff00;stop-opacity:1;"
         offset="0"
         id="stop294" /><stop
         style="stop-color:#ffff00;stop-opacity:0;"
         offset="1"
         id="stop295" /></linearGradient><linearGradient
       id="swatch72"
       inkscape:swatch="solid"><stop
         style="stop-color:#000000;stop-opacity:0.74084508;"
         offset="0"
         id="stop72" /></linearGradient><linearGradient
       id="swatch45"
       inkscape:swatch="solid"><stop
         style="stop-color:#b30000;stop-opacity:0.50704223;"
         offset="0"
         id="stop45" /></linearGradient><linearGradient
       id="swatch41"
       inkscape:swatch="solid"><stop
         style="stop-color:#009d00;stop-opacity:0.63380283;"
         offset="0"
         id="stop41" /></linearGradient><inkscape:perspective
       sodipodi:type="inkscape:persp3d"
       inkscape:vp_x="0 : 105.83334 : 1"
       inkscape:vp_y="0 : 1000 : 0"
       inkscape:vp_z="211.66666 : 105.83334 : 1"
       inkscape:persp3d-origin="105.83333 : 70.555557 : 1"
       id="perspective31" /><linearGradient
       id="swatch7"
       inkscape:label="azul"><stop
         style="stop-color:#000000;stop-opacity:1;"
         offset="0"
         id="stop7" /></linearGradient><linearGradient
       id="a"
       x1="19.075"
       y1="18.782"
       x2="34.898"
       y2="34.658"
       gradientUnits="userSpaceOnUse"><stop
         stop-color="#387EB8"
         id="stop2" /><stop
         offset="1"
         stop-color="#366994"
         id="stop3" /></linearGradient><linearGradient
       id="b"
       x1="28.809"
       y1="28.882"
       x2="45.803"
       y2="45.163"
       gradientUnits="userSpaceOnUse"><stop
         stop-color="#FFE052"
         id="stop4" /><stop
         offset="1"
         stop-color="#FFC331"
         id="stop5" /></linearGradient><linearGradient
       inkscape:collect="always"
       xlink:href="#linearGradient294"
       id="linearGradient295"
       x1="-36.473682"
       y1="246.19737"
       x2="287.6955"
       y2="-76.483078"
       gradientUnits="userSpaceOnUse"
       gradientTransform="matrix(1.0000391,0,0,1.0126144,-0.00103358,-2.6619531)" /><linearGradient
       inkscape:collect="always"
       xlink:href="#linearGradient296"
       id="linearGradient297"
       x1="342.64905"
       y1="238.17003"
       x2="444.75952"
       y2="238.17004"
       gradientUnits="userSpaceOnUse"
       spreadMethod="reflect"
       gradientTransform="matrix(0.99297233,0,0,1.0003681,-232.05378,-131.6341)" /></defs><g
     inkscape:label="Capa 1"
     inkscape:groupmode="layer"
     id="layer1"><g
       id="g299"><rect
         style="display:inline;fill:url(#linearGradient297);fill-opacity:1;fill-rule:evenodd;stroke:none;stroke-width:0;stroke-dasharray:none"
         id="rect295"
         width="211.67001"
         height="211.66859"
         x="0.00066758244"
         y="-0.00094150938"
         inkscape:label="rojo_azul"
         ry="0" /><path
         style="display:inline;fill:url(#linearGradient295);stroke:none;stroke-width:0;stroke-dasharray:none"
         d="M -0.00113718,-0.00162997 211.67,-6.4627427e-4 105.30683,211.66667 Z"
         id="path289"
         inkscape:label="triangulo"
         sodipodi:nodetypes="cccc" /></g><g
       style="display:inline;fill:none"
       id="g287"
       transform="matrix(3.7048551,0,0,3.7069408,-12.901194,-12.796572)"
       inkscape:label="py"><path
         d="m 31.885,16 c -8.124,0 -7.617,3.523 -7.617,3.523 l 0.01,3.65 h 7.752 v 1.095 H 21.197 c 0,0 -5.197,-0.59 -5.197,7.608 0,8.196 4.537,7.906 4.537,7.906 h 2.708 v -3.804 c 0,0 -0.146,-4.537 4.465,-4.537 h 7.688 c 0,0 4.32,0.07 4.32,-4.175 v -7.019 c 0,0 0.656,-4.247 -7.833,-4.247 z m -4.275,2.454 c 0.771,0 1.395,0.624 1.395,1.395 0,0.771 -0.624,1.395 -1.395,1.395 a 1.393,1.393 0 0 1 -1.395,-1.395 c 0,-0.771 0.624,-1.395 1.395,-1.395 z"
         fill="url(#a)"
         id="path1"
         style="fill:#ffffff" /><path
         d="m 32.115,47.833 c 8.124,0 7.617,-3.523 7.617,-3.523 l -0.01,-3.65 H 31.97 v -1.095 h 10.832 c 0,0 5.198,0.59 5.198,-7.607 0,-8.197 -4.537,-7.906 -4.537,-7.906 h -2.708 v 3.803 c 0,0 0.146,4.537 -4.465,4.537 h -7.688 c 0,0 -4.32,-0.07 -4.32,4.175 v 7.019 c 0,0 -0.656,4.247 7.833,4.247 z m 4.275,-2.454 a 1.393,1.393 0 0 1 -1.395,-1.395 c 0,-0.77 0.624,-1.394 1.395,-1.394 0.771,0 1.395,0.623 1.395,1.394 0,0.772 -0.624,1.395 -1.395,1.395 z"
         fill="url(#b)"
         id="path2"
         style="fill:#ececec;fill-opacity:1" /></g></g></svg>
